<svg viewBox="0 0 100 100" xmlns="http://www.w3.org/2000/svg">
  <g fill="currentColor">
    <g opacity="0.12">
      <circle cx="30" cy="25" r="2.5"/><circle cx="40" cy="25" r="2.5"/>
      <circle cx="50" cy="25" r="2.5"/><circle cx="60" cy="25" r="2.5"/>
      <circle cx="70" cy="25" r="2.5"/>
      <circle cx="30" cy="37" r="2.5"/><circle cx="40" cy="37" r="2.5"/>
      <circle cx="50" cy="37" r="2.5"/><circle cx="60" cy="37" r="2.5"/>
      <circle cx="70" cy="37" r="2.5"/>
      <circle cx="30" cy="49" r="2.5"/><circle cx="40" cy="49" r="2.5"/>
      <circle cx="60" cy="49" r="2.5"/><circle cx="70" cy="49" r="2.5"/>
      <circle cx="30" cy="61" r="2.5"/><circle cx="40" cy="61" r="2.5"/>
      <circle cx="50" cy="61" r="2.5"/><circle cx="60" cy="61" r="2.5"/>
      <circle cx="70" cy="61" r="2.5"/>
      <circle cx="30" cy="73" r="2.5"/><circle cx="40" cy="73" r="2.5"/>
      <circle cx="50" cy="73" r="2.5"/><circle cx="60" cy="73" r="2.5"/>
      <circle cx="70" cy="73" r="2.5"/>
    </g>
    <circle cx="50" cy="49" r="6" opacity="0.9"/>
    <circle cx="50" cy="49" r="2.5" fill="white"/>
  </g>
</svg>
