<svg width="24" height="24" viewBox="0 0 24 24" fill="none" xmlns="http://www.w3.org/2000/svg">
<path d="M12 22.75C6.072 22.75 1.25 17.928 1.25 12C1.25 6.072 6.072 1.25 12 1.25C17.928 1.25 22.75 6.072 22.75 12C22.75 12.914 22.634 13.82 22.405 14.69C22.257 15.274 21.877 15.759 21.336 16.047C20.755 16.357 20.056 16.403 19.418 16.176C18.368 15.812 17.787 14.653 18.072 13.482C18.191 12.998 18.251 12.499 18.251 11.999C18.251 8.55302 15.447 5.74902 12.001 5.74902C8.55498 5.74902 5.75098 8.55302 5.75098 11.999C5.75098 15.445 8.55498 18.249 12.001 18.249C13.127 18.249 14.243 17.94 15.228 17.354C15.584 17.143 16.044 17.259 16.256 17.616C16.468 17.973 16.351 18.432 15.994 18.644C14.777 19.367 13.397 19.749 12.001 19.749C7.72798 19.749 4.25098 16.272 4.25098 11.999C4.25098 7.72602 7.72798 4.24902 12.001 4.24902C16.274 4.24902 19.751 7.72602 19.751 11.999C19.751 12.62 19.676 13.238 19.529 13.838C19.444 14.187 19.568 14.64 19.917 14.761C20.161 14.848 20.426 14.833 20.631 14.724C20.747 14.662 20.897 14.541 20.954 14.316C21.152 13.563 21.251 12.786 21.251 12C21.251 6.9 17.101 2.75 12.001 2.75C6.90098 2.75 2.75098 6.9 2.75098 12C2.75098 17.1 6.90098 21.25 12.001 21.25C14.028 21.25 15.946 20.611 17.549 19.401C17.88 19.151 18.35 19.217 18.599 19.548C18.848 19.879 18.783 20.349 18.452 20.598C16.587 22.005 14.356 22.749 12 22.749V22.75Z" fill="#141B34"/>
</svg>
