<svg width="24" height="24" viewBox="0 0 24 24" fill="none" xmlns="http://www.w3.org/2000/svg">
<path fill-rule="evenodd" clip-rule="evenodd" d="M2.75 12C2.75 6.89137 6.89137 2.75 12 2.75C14.292 2.75 16.3893 3.58362 18.0053 4.96421L8.52275 15.1241L8.47975 15.0882L7.84332 15.852L5.3947 18.4755C3.75876 16.807 2.75 14.5213 2.75 12ZM6.52858 19.4591C8.06087 20.5849 9.95277 21.25 12 21.25C12.4774 21.25 12.9464 21.2138 13.4043 21.1441L8.65186 17.1841L6.52858 19.4591ZM15.1947 20.6835C16.4384 20.2258 17.5566 19.5085 18.4837 18.5973L12.29 13.2861L9.67695 16.0858L15.1947 20.6835ZM19.4652 17.463C20.2048 16.4541 20.7448 15.2897 21.027 14.0279L15.6538 9.68207L13.3144 12.1886L19.4652 17.463ZM21.246 12.2758C21.2486 12.1842 21.25 12.0923 21.25 12C21.25 9.72373 20.4278 7.63949 19.0642 6.02808L16.6798 8.58273L21.246 12.2758ZM12 1.25C6.06294 1.25 1.25 6.06294 1.25 12C1.25 17.9371 6.06294 22.75 12 22.75C17.9371 22.75 22.75 17.9371 22.75 12C22.75 6.06294 17.9371 1.25 12 1.25Z" fill="#141B34"/>
</svg>
