<svg width="24" height="24" viewBox="0 0 24 24" fill="none" xmlns="http://www.w3.org/2000/svg">
<path fill-rule="evenodd" clip-rule="evenodd" d="M12 3.25C12.4142 3.25 12.75 3.58579 12.75 4V8.32501C12.8996 8.35537 13.0459 8.39463 13.1884 8.44221L15.3505 4.69737C15.5576 4.33865 16.0163 4.21574 16.375 4.42285C16.7337 4.62996 16.8566 5.08865 16.6495 5.44737L14.4869 9.19317C14.5999 9.29335 14.7067 9.40025 14.8069 9.51324L18.5528 7.35059C18.9115 7.14348 19.3702 7.26639 19.5773 7.6251C19.7844 7.98382 19.6615 8.44252 19.3028 8.64962L15.5578 10.8118C15.6054 10.9542 15.6446 11.1005 15.675 11.25H20C20.4142 11.25 20.75 11.5858 20.75 12C20.75 12.4142 20.4142 12.75 20 12.75H15.675C15.6446 12.8996 15.6054 13.0459 15.5578 13.1884L19.3028 15.3506C19.6615 15.5577 19.7844 16.0164 19.5773 16.3751C19.3702 16.7338 18.9115 16.8567 18.5528 16.6496L14.8068 14.4869C14.7067 14.5998 14.5998 14.7067 14.4869 14.8068L16.6495 18.5526C16.8566 18.9113 16.7337 19.37 16.375 19.5771C16.0163 19.7843 15.5576 19.6613 15.3505 19.3026L13.1884 15.5578C13.0459 15.6054 12.8996 15.6446 12.75 15.675V20C12.75 20.4142 12.4142 20.75 12 20.75C11.5858 20.75 11.25 20.4142 11.25 20V15.675C11.1006 15.6447 10.9545 15.6055 10.8121 15.558L8.6495 19.3038C8.44239 19.6625 7.9837 19.7854 7.62498 19.5783C7.26626 19.3712 7.14336 18.9125 7.35046 18.5538L9.51355 14.8072C9.40034 14.7069 9.29324 14.5998 9.19289 14.4866L5.44634 16.6496C5.08763 16.8567 4.62893 16.7338 4.42183 16.3751C4.21472 16.0164 4.33763 15.5577 4.69634 15.3506L8.44208 13.188C8.39456 13.0456 8.35534 12.8994 8.32501 12.75H4C3.58579 12.75 3.25 12.4142 3.25 12C3.25 11.5858 3.58579 11.25 4 11.25H8.32501C8.35533 11.1006 8.39452 10.9545 8.44202 10.8122L4.69635 8.64962C4.33763 8.44252 4.21472 7.98382 4.42183 7.6251C4.62893 7.26638 5.08763 7.14348 5.44635 7.35058L9.19277 9.51358C9.29316 9.40032 9.40031 9.29317 9.51357 9.19278L7.3505 5.44622C7.14339 5.0875 7.2663 4.62881 7.62502 4.4217C7.98374 4.2146 8.44243 4.3375 8.64954 4.69622L10.8122 8.44202C10.9545 8.39453 11.1006 8.35533 11.25 8.32501V4C11.25 3.58579 11.5858 3.25 12 3.25ZM10.054 10.8699C10.4437 10.2002 11.1693 9.75 12 9.75C12.3985 9.75 12.7727 9.85358 13.0974 10.0353C13.1064 10.041 13.1156 10.0466 13.125 10.052C13.134 10.0572 13.1431 10.0622 13.1522 10.067C13.473 10.2587 13.7422 10.5279 13.9336 10.8489L13.9408 10.8622L13.9481 10.8751C13.9533 10.8841 13.9587 10.893 13.9642 10.9017C14.1462 11.2266 14.25 11.6012 14.25 12C14.25 12.3996 14.1458 12.7749 13.9632 13.1002C13.958 13.1083 13.953 13.1167 13.9481 13.1251C13.9434 13.1332 13.9389 13.1413 13.9346 13.1495C13.743 13.4713 13.4734 13.7412 13.152 13.9331C13.1429 13.9379 13.1339 13.9428 13.125 13.948C13.1157 13.9533 13.1066 13.9589 13.0977 13.9646C12.773 14.1464 12.3986 14.25 12 14.25C10.7574 14.25 9.75 13.2426 9.75 12C9.75 11.5927 9.85824 11.2106 10.0475 10.881C10.0487 10.8791 10.0498 10.8771 10.051 10.8751C10.052 10.8734 10.053 10.8716 10.054 10.8699Z" fill="#141B34"/>
</svg>
