<svg width="24" height="24" viewBox="0 0 24 24" fill="none" xmlns="http://www.w3.org/2000/svg">
<path fill-rule="evenodd" clip-rule="evenodd" d="M12.0572 1.75H11.9428C9.75212 1.74999 8.03144 1.74998 6.68802 1.93059C5.31137 2.11568 4.21911 2.50272 3.36091 3.36091C2.50272 4.21911 2.11568 5.31137 1.93059 6.68802C1.81039 7.58212 1.77019 8.64332 1.75675 9.89898C1.7523 9.93202 1.75 9.96574 1.75 10C1.75 10.0293 1.75168 10.0582 1.75494 10.0866C1.74999 10.6643 1.75 11.2822 1.75 11.9428V12.0572C1.74999 13.0825 1.74999 14.0048 1.7685 14.8337C1.75639 14.8872 1.75 14.9429 1.75 15C1.75 15.071 1.75986 15.1396 1.77827 15.2047C1.80246 15.9933 1.84734 16.6927 1.93059 17.312C2.11568 18.6886 2.50272 19.7809 3.36091 20.6391C4.21911 21.4973 5.31137 21.8843 6.68802 22.0694C8.03144 22.25 9.7521 22.25 11.9428 22.25H11.9428H12.0572H12.0572C13.0825 22.25 14.0048 22.25 14.8337 22.2315C14.8872 22.2436 14.9429 22.25 15 22.25C15.071 22.25 15.1396 22.2401 15.2047 22.2217C15.9933 22.1975 16.6927 22.1527 17.312 22.0694C18.6886 21.8843 19.7809 21.4973 20.6391 20.6391C21.4973 19.7809 21.8843 18.6886 22.0694 17.312C22.1527 16.6927 22.1975 15.9933 22.2217 15.2047C22.2401 15.1396 22.25 15.071 22.25 15C22.25 14.9429 22.2436 14.8872 22.2315 14.8337C22.25 14.0048 22.25 13.0825 22.25 12.0572V12.0572V11.9428V11.9428C22.25 9.7521 22.25 8.03144 22.0694 6.68802C21.8843 5.31137 21.4973 4.21911 20.6391 3.36091C19.7809 2.50272 18.6886 2.11568 17.312 1.93059C16.4179 1.81039 15.3567 1.77019 14.101 1.75675C14.068 1.7523 14.0343 1.75 14 1.75C13.9707 1.75 13.9418 1.75168 13.9134 1.75494C13.3357 1.74999 12.7178 1.75 12.0572 1.75ZM13.25 3.25138C12.8564 3.25006 12.4404 3.25 12 3.25C9.73963 3.25 8.11979 3.25159 6.8879 3.41722C5.67757 3.57994 4.95462 3.88853 4.42157 4.42157C3.88853 4.95462 3.57994 5.67757 3.41722 6.8879C3.32819 7.55009 3.28655 8.32438 3.26709 9.25H5C5.96401 9.25 6.61157 9.24841 7.09461 9.18346C7.55607 9.12142 7.75357 9.0142 7.88388 8.88388C8.0142 8.75357 8.12142 8.55607 8.18346 8.09461C8.24841 7.61157 8.25 6.96401 8.25 6C8.25 5.58579 8.58579 5.25 9 5.25C9.41421 5.25 9.75 5.58579 9.75 6L9.75 6.05199C9.75003 6.95048 9.75006 7.6997 9.67009 8.29448C9.58568 8.92227 9.40001 9.48907 8.94454 9.94454C8.48907 10.4 7.92227 10.5857 7.29448 10.6701C6.6997 10.7501 5.95048 10.75 5.05199 10.75L3.25138 10.75C3.25006 11.1436 3.25 11.5596 3.25 12C3.25 12.8327 3.25022 13.5785 3.25877 14.25H6C6.41421 14.25 6.75 14.5858 6.75 15C6.75 15.4142 6.41421 15.75 6 15.75H3.30067C3.32544 16.2528 3.36232 16.7038 3.41722 17.1121C3.57994 18.3224 3.88853 19.0454 4.42157 19.5784C4.95462 20.1115 5.67757 20.4201 6.8879 20.5828C8.11979 20.7484 9.73963 20.75 12 20.75C12.8327 20.75 13.5785 20.7498 14.25 20.7412V15.75H10C9.58579 15.75 9.25 15.4142 9.25 15C9.25 14.5858 9.58579 14.25 10 14.25H20.7412C20.7498 13.5785 20.75 12.8327 20.75 12C20.75 9.73963 20.7484 8.11979 20.5828 6.8879C20.4201 5.67757 20.1115 4.95462 19.5784 4.42157C19.0454 3.88853 18.3224 3.57994 17.1121 3.41722C16.4499 3.32819 15.6756 3.28655 14.75 3.26709V7C14.75 7.96401 14.7516 8.61157 14.8165 9.09461C14.8786 9.55607 14.9858 9.75357 15.1161 9.88388C15.2464 10.0142 15.4439 10.1214 15.9054 10.1835C16.3884 10.2484 17.036 10.25 18 10.25C18.4142 10.25 18.75 10.5858 18.75 11C18.75 11.4142 18.4142 11.75 18 11.75L17.948 11.75H17.948C17.0495 11.75 16.3003 11.7501 15.7055 11.6701C15.0777 11.5857 14.5109 11.4 14.0555 10.9445C13.6 10.4891 13.4143 9.92227 13.3299 9.29448C13.2499 8.6997 13.25 7.95048 13.25 7.052L13.25 3.25138ZM20.6993 15.75H15.75V20.6993C16.2528 20.6746 16.7038 20.6377 17.1121 20.5828C18.3224 20.4201 19.0454 20.1115 19.5784 19.5784C20.1115 19.0454 20.4201 18.3224 20.5828 17.1121C20.6377 16.7038 20.6746 16.2528 20.6993 15.75Z" fill="#141B34"/>
</svg>
